<svg id="Layer_1" data-name="Layer 1" xmlns="http://www.w3.org/2000/svg" viewBox="0 0 122.9 107.5"><defs><style>.cls-1{fill:#04445f;}</style></defs><title>cart</title><path class="cls-1" d="M3.9,7.9A4,4,0,0,1,0,3.9,4,4,0,0,1,3.9,0H14.5A18.42,18.42,0,0,1,24,2.5a14.94,14.94,0,0,1,6.4,9.1.37.37,0,0,0,.1.3l1,4H119a3.9,3.9,0,0,1,3.9,3.9,5,5,0,0,1-.2,1.2L112.5,62.1a3.85,3.85,0,0,1-3.8,3h-64c1.4,5.2,2.8,8,4.7,9.3,2.3,1.5,6.3,1.6,13,1.5h45.3a3.9,3.9,0,0,1,0,7.8H62.5c-8.3.1-13.4-.1-17.5-2.8s-6.4-7.6-8.6-16.3h0L23,13.9c0-.1,0-.1-.1-.2a7,7,0,0,0-3-4.5,10.19,10.19,0,0,0-5.5-1.3H3.9ZM96,88.3a9.6,9.6,0,1,1-9.6,9.6A9.6,9.6,0,0,1,96,88.3Zm-42.1,0a9.6,9.6,0,1,1-9.6,9.6,9.6,9.6,0,0,1,9.6-9.6ZM33.7,23.7l8.9,33.5h63.1L114,23.7Z"/></svg>